<svg xmlns="http://www.w3.org/2000/svg" version="1.1" xmlns:xlink="http://www.w3.org/1999/xlink" width="500" height="500"><svg xmlns="http://www.w3.org/2000/svg" xmlns:xlink="http://www.w3.org/1999/xlink" width="500" zoomAndPan="magnify" viewBox="0 0 375 374.999991" height="500" preserveAspectRatio="xMidYMid meet" version="1.0"><defs><g></g><clipPath id="SvgjsClipPath1024"><path d="M 11 71 L 253 71 L 253 258 L 11 258 Z M 11 71 " clip-rule="nonzero"></path></clipPath><clipPath id="SvgjsClipPath1023"><rect x="0" width="253" y="0" height="366"></rect></clipPath><clipPath id="SvgjsClipPath1022"><rect x="0" width="375" y="0" height="366"></rect></clipPath></defs><g transform="matrix(1, 0, 0, 1, 0, 0)"><g clip-path="url(#17685c9eb4)"><g transform="matrix(1, 0, 0, 1, 122, 0)"><g clip-path="url(#1df3045be2)"><g clip-path="url(#f7bddb0728)"><g fill="#000000" fill-opacity="1"><g transform="translate(3.633708, 252.69456)"><g><path d="M 58.109375 -89.953125 L 58.90625 -89.15625 C 72.445312 -117.289062 86.378906 -139.582031 100.703125 -156.03125 C 115.035156 -172.488281 127.90625 -180.71875 139.3125 -180.71875 C 145.6875 -180.71875 150.660156 -178.59375 154.234375 -174.34375 C 157.816406 -170.09375 159.609375 -164.125 159.609375 -156.4375 C 159.609375 -150.863281 158.679688 -144.359375 156.828125 -136.921875 L 145.6875 -89.953125 L 146.484375 -89.15625 C 163.734375 -122.332031 178.789062 -145.882812 191.65625 -159.8125 C 204.53125 -173.75 216.140625 -180.71875 226.484375 -180.71875 C 232.585938 -180.71875 237.5625 -178.660156 241.40625 -174.546875 C 245.257812 -170.429688 247.1875 -164.789062 247.1875 -157.625 C 247.1875 -154.707031 246.988281 -151.921875 246.59375 -149.265625 C 246.195312 -146.609375 245.664062 -144.148438 245 -141.890625 C 244.332031 -139.640625 243.867188 -137.851562 243.609375 -136.53125 L 219.71875 -33.828125 C 218.125 -27.460938 217.328125 -23.617188 217.328125 -22.296875 C 217.328125 -21.234375 217.722656 -20.367188 218.515625 -19.703125 C 219.316406 -19.035156 220.25 -18.703125 221.3125 -18.703125 C 225.820312 -18.703125 233.648438 -26.664062 244.796875 -42.59375 L 249.96875 -39.8125 C 239.09375 -23.625 230.003906 -12.144531 222.703125 -5.375 C 215.410156 1.394531 208.710938 4.78125 202.609375 4.78125 C 198.097656 4.78125 194.378906 3.1875 191.453125 0 C 188.535156 -3.1875 187.078125 -7.695312 187.078125 -13.53125 C 187.078125 -19.90625 187.875 -25.878906 189.46875 -31.453125 L 214.546875 -138.125 C 215.335938 -140.507812 215.734375 -143.5625 215.734375 -147.28125 C 215.734375 -153.113281 213.613281 -156.03125 209.375 -156.03125 C 202.476562 -156.03125 193.984375 -149.394531 183.890625 -136.125 C 173.546875 -122.332031 163.394531 -106.082031 153.4375 -87.375 C 143.488281 -68.664062 137.585938 -55.195312 135.734375 -46.96875 L 124.984375 0 L 95.53125 0 L 124.59375 -125.78125 C 125.125 -127.632812 125.984375 -130.953125 127.171875 -135.734375 C 128.367188 -140.515625 128.96875 -143.960938 128.96875 -146.078125 C 128.96875 -152.710938 126.445312 -156.03125 121.40625 -156.03125 C 114.238281 -156.03125 104.15625 -147.273438 91.15625 -129.765625 C 81.863281 -117.023438 72.90625 -102.160156 64.28125 -85.171875 C 55.65625 -68.191406 50.28125 -55.191406 48.15625 -46.171875 L 37.421875 0 L 7.96875 0 L 39.015625 -134.9375 C 40.867188 -142.363281 41.796875 -148.46875 41.796875 -153.25 C 41.796875 -156.96875 40.597656 -159.882812 38.203125 -162 C 35.816406 -164.125 31.835938 -165.453125 26.265625 -165.984375 L 27.859375 -172.359375 L 72.84375 -180.71875 L 79.21875 -180.71875 Z M 58.109375 -89.953125 "></path></g></g></g></g></g></g><g fill="#000000" fill-opacity="1"><g transform="translate(-7.819401, 251.340008)"><g><path d="M 85.578125 -187.484375 C 92.484375 -187.484375 98.785156 -186.488281 104.484375 -184.5 C 110.191406 -182.507812 115.832031 -179.125 121.40625 -174.34375 L 162.8125 -174.34375 C 165.726562 -174.34375 167.515625 -173.742188 168.171875 -172.546875 C 168.835938 -171.359375 169.171875 -169.304688 169.171875 -166.390625 C 169.171875 -162.671875 168.835938 -160.148438 168.171875 -158.828125 C 167.515625 -157.503906 165.859375 -156.84375 163.203125 -156.84375 L 136.9375 -156.84375 C 142.507812 -145.425781 145.296875 -133.613281 145.296875 -121.40625 C 145.296875 -103.09375 139.785156 -88.226562 128.765625 -76.8125 C 117.753906 -65.40625 103.492188 -59.703125 85.984375 -59.703125 C 78.816406 -59.703125 71.253906 -61.03125 63.296875 -63.6875 C 56.128906 -54.664062 52.546875 -47.765625 52.546875 -42.984375 C 52.546875 -37.679688 56.0625 -34.363281 63.09375 -33.03125 C 70.125 -31.707031 82.132812 -30.914062 99.125 -30.65625 C 119.820312 -30.382812 136.601562 -27.265625 149.46875 -21.296875 C 162.34375 -15.328125 168.78125 -3.453125 168.78125 14.328125 C 168.78125 26.535156 164.53125 37.8125 156.03125 48.15625 C 147.539062 58.507812 136.128906 66.738281 121.796875 72.84375 C 107.472656 78.945312 91.953125 82 75.234375 82 C 63.816406 82 53.195312 80.273438 43.375 76.828125 C 33.5625 73.378906 25.734375 68.800781 19.890625 63.09375 C 14.054688 57.382812 11.140625 51.210938 11.140625 44.578125 C 11.140625 37.941406 13.789062 30.644531 19.09375 22.6875 C 24.40625 14.726562 32.632812 4.910156 43.78125 -6.765625 C 38.476562 -8.085938 34.429688 -10.472656 31.640625 -13.921875 C 28.859375 -17.378906 27.46875 -21.363281 27.46875 -25.875 C 27.46875 -36.226562 36.359375 -50.289062 54.140625 -68.0625 C 44.847656 -74.164062 37.8125 -82.0625 33.03125 -91.75 C 28.257812 -101.4375 25.875 -112.117188 25.875 -123.796875 C 25.875 -142.367188 31.507812 -157.625 42.78125 -169.5625 C 54.0625 -181.507812 68.328125 -187.484375 85.578125 -187.484375 Z M 61.703125 -130.171875 C 61.703125 -90.097656 70.328125 -70.0625 87.578125 -70.0625 C 94.742188 -70.0625 100.582031 -73.578125 105.09375 -80.609375 C 109.601562 -87.640625 111.859375 -99.117188 111.859375 -115.046875 C 111.859375 -138.390625 109.46875 -154.570312 104.6875 -163.59375 C 99.914062 -172.625 93.414062 -177.140625 85.1875 -177.140625 C 76.164062 -177.140625 69.992188 -172.757812 66.671875 -164 C 63.359375 -155.238281 61.703125 -143.960938 61.703125 -130.171875 Z M 86.78125 -1.1875 C 74.300781 -1.1875 63.6875 -2.25 54.9375 -4.375 C 44.050781 8.625 38.609375 19.367188 38.609375 27.859375 C 38.609375 31.835938 40.203125 36.21875 43.390625 41 C 46.578125 45.78125 51.953125 49.894531 59.515625 53.34375 C 67.078125 56.789062 77.09375 58.515625 89.5625 58.515625 C 109.46875 58.515625 125.457031 55.265625 137.53125 48.765625 C 149.601562 42.265625 155.640625 33.441406 155.640625 22.296875 C 155.640625 15.128906 153.445312 9.953125 149.0625 6.765625 C 144.6875 3.578125 138.117188 1.519531 129.359375 0.59375 C 120.609375 -0.332031 106.414062 -0.925781 86.78125 -1.1875 Z M 86.78125 -1.1875 "></path></g></g></g></g></g></svg><style>@media (prefers-color-scheme: light) { :root { filter: none; } }
@media (prefers-color-scheme: dark) { :root { filter: none; } }
</style></svg>