<svg xmlns="http://www.w3.org/2000/svg" xmlns:xlink="http://www.w3.org/1999/xlink" width="500" zoomAndPan="magnify" viewBox="0 0 375 374.999991" height="500" preserveAspectRatio="xMidYMid meet" version="1.0"><defs><g/></defs><g fill="#000000" fill-opacity="1"><g transform="translate(72.583005, 228.117511)"><g><path d="M 12.703125 -19.65625 L 12.875 -19.484375 C 15.832031 -25.628906 18.875 -30.5 22 -34.09375 C 25.132812 -37.695312 27.953125 -39.5 30.453125 -39.5 C 31.835938 -39.5 32.921875 -39.035156 33.703125 -38.109375 C 34.492188 -37.179688 34.890625 -35.875 34.890625 -34.1875 C 34.890625 -32.96875 34.6875 -31.546875 34.28125 -29.921875 L 31.84375 -19.65625 L 32.015625 -19.484375 C 35.785156 -26.734375 39.078125 -31.878906 41.890625 -34.921875 C 44.703125 -37.972656 47.238281 -39.5 49.5 -39.5 C 50.832031 -39.5 51.921875 -39.046875 52.765625 -38.140625 C 53.609375 -37.242188 54.03125 -36.015625 54.03125 -34.453125 C 54.03125 -33.816406 53.984375 -33.207031 53.890625 -32.625 C 53.804688 -32.039062 53.691406 -31.503906 53.546875 -31.015625 C 53.398438 -30.523438 53.300781 -30.132812 53.25 -29.84375 L 48.03125 -7.390625 C 47.675781 -6.003906 47.5 -5.164062 47.5 -4.875 C 47.5 -4.644531 47.585938 -4.457031 47.765625 -4.3125 C 47.941406 -4.164062 48.144531 -4.09375 48.375 -4.09375 C 49.351562 -4.09375 51.0625 -5.832031 53.5 -9.3125 L 54.640625 -8.703125 C 52.253906 -5.160156 50.265625 -2.648438 48.671875 -1.171875 C 47.078125 0.304688 45.613281 1.046875 44.28125 1.046875 C 43.289062 1.046875 42.476562 0.695312 41.84375 0 C 41.207031 -0.695312 40.890625 -1.679688 40.890625 -2.953125 C 40.890625 -4.347656 41.0625 -5.65625 41.40625 -6.875 L 46.890625 -30.1875 C 47.066406 -30.707031 47.15625 -31.375 47.15625 -32.1875 C 47.15625 -33.46875 46.691406 -34.109375 45.765625 -34.109375 C 44.253906 -34.109375 42.394531 -32.65625 40.1875 -29.75 C 37.925781 -26.738281 35.707031 -23.1875 33.53125 -19.09375 C 31.363281 -15.007812 30.078125 -12.066406 29.671875 -10.265625 L 27.3125 0 L 20.875 0 L 27.234375 -27.484375 C 27.347656 -27.890625 27.535156 -28.613281 27.796875 -29.65625 C 28.054688 -30.707031 28.1875 -31.460938 28.1875 -31.921875 C 28.1875 -33.378906 27.632812 -34.109375 26.53125 -34.109375 C 24.96875 -34.109375 22.765625 -32.191406 19.921875 -28.359375 C 17.890625 -25.578125 15.929688 -22.328125 14.046875 -18.609375 C 12.160156 -14.898438 10.988281 -12.0625 10.53125 -10.09375 L 8.171875 0 L 1.734375 0 L 8.53125 -29.5 C 8.9375 -31.113281 9.140625 -32.445312 9.140625 -33.5 C 9.140625 -34.3125 8.875 -34.945312 8.34375 -35.40625 C 7.820312 -35.875 6.953125 -36.164062 5.734375 -36.28125 L 6.09375 -37.671875 L 15.921875 -39.5 L 17.3125 -39.5 Z M 12.703125 -19.65625 "/></g></g></g><g fill="#000000" fill-opacity="1"><g transform="translate(122.513792, 228.117511)"><g><path d="M 22.96875 -39.5 C 26.21875 -39.5 28.738281 -38.367188 30.53125 -36.109375 C 32.332031 -33.847656 33.234375 -30.6875 33.234375 -26.625 C 33.234375 -22.5 32.316406 -18.273438 30.484375 -13.953125 C 28.660156 -9.640625 26.195312 -6.0625 23.09375 -3.21875 C 19.988281 -0.375 16.671875 1.046875 13.140625 1.046875 C 9.953125 1.046875 7.441406 -0.0507812 5.609375 -2.25 C 3.785156 -4.457031 2.875 -7.535156 2.875 -11.484375 C 2.875 -15.710938 3.800781 -20.015625 5.65625 -24.390625 C 7.507812 -28.773438 9.988281 -32.390625 13.09375 -35.234375 C 16.195312 -38.078125 19.488281 -39.5 22.96875 -39.5 Z M 15.75 -32.359375 C 13.945312 -28.472656 12.460938 -23.816406 11.296875 -18.390625 C 10.140625 -12.972656 9.5625 -9.078125 9.5625 -6.703125 C 9.5625 -4.847656 9.925781 -3.410156 10.65625 -2.390625 C 11.382812 -1.378906 12.5 -0.875 14 -0.875 C 16.726562 -0.875 18.960938 -2.695312 20.703125 -6.34375 C 22.441406 -10.0625 23.847656 -14.53125 24.921875 -19.75 C 25.992188 -24.96875 26.53125 -28.820312 26.53125 -31.3125 C 26.53125 -35.488281 25.050781 -37.578125 22.09375 -37.578125 C 20.644531 -37.578125 19.425781 -37.140625 18.4375 -36.265625 C 17.457031 -35.398438 16.5625 -34.097656 15.75 -32.359375 Z M 15.75 -32.359375 "/></g></g></g><g fill="#000000" fill-opacity="1"><g transform="translate(150.697499, 228.117511)"><g><path d="M 12.703125 -19.65625 L 12.875 -19.484375 C 15.832031 -25.628906 18.875 -30.5 22 -34.09375 C 25.132812 -37.695312 27.953125 -39.5 30.453125 -39.5 C 31.835938 -39.5 32.921875 -39.035156 33.703125 -38.109375 C 34.492188 -37.179688 34.890625 -35.875 34.890625 -34.1875 C 34.890625 -32.96875 34.6875 -31.546875 34.28125 -29.921875 L 31.84375 -19.65625 L 32.015625 -19.484375 C 35.785156 -26.734375 39.078125 -31.878906 41.890625 -34.921875 C 44.703125 -37.972656 47.238281 -39.5 49.5 -39.5 C 50.832031 -39.5 51.921875 -39.046875 52.765625 -38.140625 C 53.609375 -37.242188 54.03125 -36.015625 54.03125 -34.453125 C 54.03125 -33.816406 53.984375 -33.207031 53.890625 -32.625 C 53.804688 -32.039062 53.691406 -31.503906 53.546875 -31.015625 C 53.398438 -30.523438 53.300781 -30.132812 53.25 -29.84375 L 48.03125 -7.390625 C 47.675781 -6.003906 47.5 -5.164062 47.5 -4.875 C 47.5 -4.644531 47.585938 -4.457031 47.765625 -4.3125 C 47.941406 -4.164062 48.144531 -4.09375 48.375 -4.09375 C 49.351562 -4.09375 51.0625 -5.832031 53.5 -9.3125 L 54.640625 -8.703125 C 52.253906 -5.160156 50.265625 -2.648438 48.671875 -1.171875 C 47.078125 0.304688 45.613281 1.046875 44.28125 1.046875 C 43.289062 1.046875 42.476562 0.695312 41.84375 0 C 41.207031 -0.695312 40.890625 -1.679688 40.890625 -2.953125 C 40.890625 -4.347656 41.0625 -5.65625 41.40625 -6.875 L 46.890625 -30.1875 C 47.066406 -30.707031 47.15625 -31.375 47.15625 -32.1875 C 47.15625 -33.46875 46.691406 -34.109375 45.765625 -34.109375 C 44.253906 -34.109375 42.394531 -32.65625 40.1875 -29.75 C 37.925781 -26.738281 35.707031 -23.1875 33.53125 -19.09375 C 31.363281 -15.007812 30.078125 -12.066406 29.671875 -10.265625 L 27.3125 0 L 20.875 0 L 27.234375 -27.484375 C 27.347656 -27.890625 27.535156 -28.613281 27.796875 -29.65625 C 28.054688 -30.707031 28.1875 -31.460938 28.1875 -31.921875 C 28.1875 -33.378906 27.632812 -34.109375 26.53125 -34.109375 C 24.96875 -34.109375 22.765625 -32.191406 19.921875 -28.359375 C 17.890625 -25.578125 15.929688 -22.328125 14.046875 -18.609375 C 12.160156 -14.898438 10.988281 -12.0625 10.53125 -10.09375 L 8.171875 0 L 1.734375 0 L 8.53125 -29.5 C 8.9375 -31.113281 9.140625 -32.445312 9.140625 -33.5 C 9.140625 -34.3125 8.875 -34.945312 8.34375 -35.40625 C 7.820312 -35.875 6.953125 -36.164062 5.734375 -36.28125 L 6.09375 -37.671875 L 15.921875 -39.5 L 17.3125 -39.5 Z M 12.703125 -19.65625 "/></g></g></g><g fill="#000000" fill-opacity="1"><g transform="translate(200.628286, 228.117511)"><g><path d="M 23.65625 -39.5 C 25.632812 -39.5 27.242188 -38.929688 28.484375 -37.796875 C 29.734375 -36.671875 30.359375 -35.207031 30.359375 -33.40625 C 30.359375 -31.550781 29.675781 -29.519531 28.3125 -27.3125 C 26.957031 -25.113281 24.828125 -23.082031 21.921875 -21.21875 C 19.023438 -19.363281 15.457031 -18.03125 11.21875 -17.21875 C 11.050781 -14.957031 10.96875 -13.539062 10.96875 -12.96875 C 10.96875 -10.007812 11.429688 -7.644531 12.359375 -5.875 C 13.285156 -4.101562 14.53125 -3.21875 16.09375 -3.21875 C 17.65625 -3.21875 19.175781 -3.738281 20.65625 -4.78125 C 22.132812 -5.820312 23.628906 -7.128906 25.140625 -8.703125 L 26.28125 -7.75 C 23.082031 -4.4375 20.554688 -2.140625 18.703125 -0.859375 C 16.847656 0.410156 14.816406 1.046875 12.609375 1.046875 C 9.890625 1.046875 7.757812 -0.0390625 6.21875 -2.21875 C 4.6875 -4.394531 3.921875 -7.335938 3.921875 -11.046875 C 3.921875 -14.753906 4.847656 -18.867188 6.703125 -23.390625 C 8.554688 -27.921875 10.988281 -31.738281 14 -34.84375 C 17.019531 -37.945312 20.238281 -39.5 23.65625 -39.5 Z M 11.65625 -19.046875 C 14.382812 -19.578125 16.734375 -20.695312 18.703125 -22.40625 C 20.671875 -24.113281 22.132812 -26.039062 23.09375 -28.1875 C 24.050781 -30.332031 24.53125 -32.363281 24.53125 -34.28125 C 24.53125 -35.257812 24.328125 -36.050781 23.921875 -36.65625 C 23.515625 -37.269531 22.878906 -37.578125 22.015625 -37.578125 C 19.753906 -37.578125 17.679688 -35.578125 15.796875 -31.578125 C 13.910156 -27.578125 12.53125 -23.398438 11.65625 -19.046875 Z M 11.65625 -19.046875 "/></g></g></g><g fill="#000000" fill-opacity="1"><g transform="translate(224.288601, 228.117511)"><g><path d="M 13.21875 -19.484375 L 13.390625 -19.3125 C 20.523438 -32.769531 26.5625 -39.5 31.5 -39.5 C 32.769531 -39.5 33.796875 -39.035156 34.578125 -38.109375 C 35.359375 -37.179688 35.75 -35.929688 35.75 -34.359375 C 35.75 -32.503906 35.226562 -29.34375 34.1875 -24.875 L 31.40625 -12.96875 C 31.113281 -11.570312 30.851562 -10.46875 30.625 -9.65625 C 30.039062 -7.101562 29.75 -5.507812 29.75 -4.875 C 29.75 -4 30.039062 -3.5625 30.625 -3.5625 C 31.144531 -3.5625 31.78125 -3.953125 32.53125 -4.734375 C 33.289062 -5.523438 34.363281 -6.960938 35.75 -9.046875 L 36.796875 -8.171875 C 34.484375 -4.929688 32.523438 -2.582031 30.921875 -1.125 C 29.328125 0.320312 27.78125 1.046875 26.28125 1.046875 C 25.175781 1.046875 24.332031 0.6875 23.75 -0.03125 C 23.164062 -0.757812 22.875 -1.648438 22.875 -2.703125 C 22.875 -3.742188 23.132812 -5.304688 23.65625 -7.390625 L 28.1875 -26.796875 C 28.414062 -27.546875 28.617188 -28.441406 28.796875 -29.484375 C 28.972656 -30.535156 29.0625 -31.289062 29.0625 -31.75 C 29.0625 -32.445312 28.898438 -33.015625 28.578125 -33.453125 C 28.253906 -33.890625 27.863281 -34.109375 27.40625 -34.109375 C 26.363281 -34.109375 25.015625 -33.25 23.359375 -31.53125 C 21.703125 -29.820312 19.921875 -27.429688 18.015625 -24.359375 C 15.984375 -21.054688 14.226562 -17.53125 12.75 -13.78125 C 11.269531 -10.039062 9.945312 -5.445312 8.78125 0 L 2.34375 0 L 9.140625 -29.5 C 9.597656 -31.644531 9.828125 -32.976562 9.828125 -33.5 C 9.828125 -34.539062 9.476562 -35.25 8.78125 -35.625 C 8.09375 -36 7.140625 -36.1875 5.921875 -36.1875 L 6.265625 -37.578125 L 16.4375 -39.5 L 17.921875 -39.5 Z M 13.21875 -19.484375 "/></g></g></g><g fill="#000000" fill-opacity="1"><g transform="translate(256.995699, 228.117511)"><g><path d="M 18.796875 -48.8125 L 20.265625 -48.8125 L 17.921875 -38.453125 L 23.84375 -38.453125 L 23.234375 -35.84375 L 17.3125 -35.84375 L 10.53125 -6.609375 C 10.414062 -6.148438 10.359375 -5.6875 10.359375 -5.21875 C 10.359375 -4.175781 10.675781 -3.65625 11.3125 -3.65625 C 12.582031 -3.65625 14.492188 -5.425781 17.046875 -8.96875 L 18.796875 -8.96875 C 16.703125 -5.832031 14.625 -3.378906 12.5625 -1.609375 C 10.507812 0.160156 8.671875 1.046875 7.046875 1.046875 C 6.054688 1.046875 5.242188 0.6875 4.609375 -0.03125 C 3.972656 -0.757812 3.65625 -1.707031 3.65625 -2.875 C 3.65625 -4.03125 4.0625 -6.378906 4.875 -9.921875 L 10.875 -35.84375 L 5.828125 -35.84375 L 6.265625 -37.671875 C 8.640625 -38.421875 10.941406 -39.8125 13.171875 -41.84375 C 15.410156 -43.875 17.285156 -46.195312 18.796875 -48.8125 Z M 18.796875 -48.8125 "/></g></g></g><g fill="#000000" fill-opacity="1"><g transform="translate(272.479097, 228.117511)"><g><path d="M 17.828125 -39.5 C 18.765625 -39.5 19.664062 -39.351562 20.53125 -39.0625 C 21.40625 -38.769531 22.390625 -38.394531 23.484375 -37.9375 C 24.410156 -37.53125 24.960938 -37.328125 25.140625 -37.328125 C 25.609375 -37.328125 25.984375 -37.484375 26.265625 -37.796875 C 26.554688 -38.117188 26.9375 -38.6875 27.40625 -39.5 L 29.140625 -39.5 L 27.0625 -26.359375 L 25.578125 -26.359375 C 25.398438 -30.304688 24.703125 -33.160156 23.484375 -34.921875 C 22.265625 -36.691406 20.703125 -37.578125 18.796875 -37.578125 C 17.515625 -37.578125 16.46875 -37.171875 15.65625 -36.359375 C 14.84375 -35.546875 14.4375 -34.535156 14.4375 -33.328125 C 14.4375 -32.335938 14.65625 -31.347656 15.09375 -30.359375 C 15.53125 -29.378906 16.269531 -28.078125 17.3125 -26.453125 L 21.3125 -20.265625 C 22.351562 -18.703125 23.191406 -17.019531 23.828125 -15.21875 C 24.472656 -13.425781 24.796875 -11.773438 24.796875 -10.265625 C 24.796875 -8.347656 24.257812 -6.519531 23.1875 -4.78125 C 22.113281 -3.039062 20.691406 -1.632812 18.921875 -0.5625 C 17.148438 0.507812 15.28125 1.046875 13.3125 1.046875 C 12.207031 1.046875 11.273438 0.925781 10.515625 0.6875 C 9.765625 0.457031 8.957031 0.113281 8.09375 -0.34375 C 7.976562 -0.40625 7.703125 -0.535156 7.265625 -0.734375 C 6.828125 -0.941406 6.4375 -1.046875 6.09375 -1.046875 C 5.507812 -1.046875 5.03125 -0.882812 4.65625 -0.5625 C 4.28125 -0.25 3.890625 0.285156 3.484375 1.046875 L 2 1.046875 L 4.171875 -12.703125 L 5.65625 -12.703125 L 5.65625 -11.75 C 5.65625 -8.382812 6.394531 -5.726562 7.875 -3.78125 C 9.351562 -1.84375 11.109375 -0.875 13.140625 -0.875 C 14.703125 -0.875 16.046875 -1.484375 17.171875 -2.703125 C 18.304688 -3.921875 18.875 -5.425781 18.875 -7.21875 C 18.875 -8.4375 18.65625 -9.625 18.21875 -10.78125 C 17.789062 -11.945312 17.140625 -13.253906 16.265625 -14.703125 L 12.359375 -20.96875 C 10.265625 -24.332031 9.21875 -27.4375 9.21875 -30.28125 C 9.21875 -32.882812 10.046875 -35.070312 11.703125 -36.84375 C 13.359375 -38.613281 15.398438 -39.5 17.828125 -39.5 Z M 17.828125 -39.5 "/></g></g></g><g fill="#000000" fill-opacity="1"><g transform="translate(102.067379, 176.067065)"><g><path d="M 18.703125 -40.984375 C 20.210938 -40.984375 21.585938 -40.765625 22.828125 -40.328125 C 24.078125 -39.890625 25.3125 -39.148438 26.53125 -38.109375 L 35.578125 -38.109375 C 36.222656 -38.109375 36.613281 -37.976562 36.75 -37.71875 C 36.894531 -37.457031 36.96875 -37.003906 36.96875 -36.359375 C 36.96875 -35.546875 36.894531 -34.992188 36.75 -34.703125 C 36.613281 -34.421875 36.253906 -34.28125 35.671875 -34.28125 L 29.921875 -34.28125 C 31.140625 -31.78125 31.75 -29.195312 31.75 -26.53125 C 31.75 -22.53125 30.546875 -19.28125 28.140625 -16.78125 C 25.734375 -14.289062 22.617188 -13.046875 18.796875 -13.046875 C 17.222656 -13.046875 15.566406 -13.335938 13.828125 -13.921875 C 12.265625 -11.953125 11.484375 -10.441406 11.484375 -9.390625 C 11.484375 -8.234375 12.25 -7.507812 13.78125 -7.21875 C 15.320312 -6.925781 17.945312 -6.753906 21.65625 -6.703125 C 26.1875 -6.640625 29.859375 -5.957031 32.671875 -4.65625 C 35.484375 -3.351562 36.890625 -0.757812 36.890625 3.125 C 36.890625 5.800781 35.957031 8.269531 34.09375 10.53125 C 32.238281 12.789062 29.742188 14.585938 26.609375 15.921875 C 23.484375 17.253906 20.09375 17.921875 16.4375 17.921875 C 13.945312 17.921875 11.628906 17.539062 9.484375 16.78125 C 7.335938 16.03125 5.625 15.03125 4.34375 13.78125 C 3.070312 12.539062 2.4375 11.195312 2.4375 9.75 C 2.4375 8.289062 3.015625 6.691406 4.171875 4.953125 C 5.335938 3.210938 7.132812 1.066406 9.5625 -1.484375 C 8.40625 -1.765625 7.519531 -2.28125 6.90625 -3.03125 C 6.300781 -3.789062 6 -4.664062 6 -5.65625 C 6 -7.914062 7.941406 -10.988281 11.828125 -14.875 C 9.796875 -16.207031 8.257812 -17.929688 7.21875 -20.046875 C 6.175781 -22.171875 5.65625 -24.507812 5.65625 -27.0625 C 5.65625 -31.113281 6.882812 -34.445312 9.34375 -37.0625 C 11.8125 -39.675781 14.929688 -40.984375 18.703125 -40.984375 Z M 13.484375 -28.453125 C 13.484375 -19.691406 15.367188 -15.3125 19.140625 -15.3125 C 20.703125 -15.3125 21.976562 -16.078125 22.96875 -17.609375 C 23.957031 -19.148438 24.453125 -21.660156 24.453125 -25.140625 C 24.453125 -30.242188 23.925781 -33.78125 22.875 -35.75 C 21.832031 -37.726562 20.414062 -38.71875 18.625 -38.71875 C 16.644531 -38.71875 15.289062 -37.757812 14.5625 -35.84375 C 13.84375 -33.925781 13.484375 -31.460938 13.484375 -28.453125 Z M 18.96875 -0.265625 C 16.238281 -0.265625 13.914062 -0.492188 12 -0.953125 C 9.625 1.890625 8.4375 4.238281 8.4375 6.09375 C 8.4375 6.957031 8.785156 7.910156 9.484375 8.953125 C 10.179688 10.003906 11.351562 10.90625 13 11.65625 C 14.65625 12.40625 16.847656 12.78125 19.578125 12.78125 C 23.921875 12.78125 27.410156 12.070312 30.046875 10.65625 C 32.691406 9.238281 34.015625 7.3125 34.015625 4.875 C 34.015625 3.300781 33.535156 2.164062 32.578125 1.46875 C 31.617188 0.78125 30.179688 0.332031 28.265625 0.125 C 26.359375 -0.0703125 23.257812 -0.203125 18.96875 -0.265625 Z M 18.96875 -0.265625 "/></g></g></g><g fill="#000000" fill-opacity="1"><g transform="translate(134.774477, 176.067065)"><g><path d="M 10.96875 -62.03125 C 12.175781 -62.03125 13.203125 -61.609375 14.046875 -60.765625 C 14.890625 -59.929688 15.3125 -58.90625 15.3125 -57.6875 C 15.3125 -56.46875 14.890625 -55.4375 14.046875 -54.59375 C 13.203125 -53.75 12.175781 -53.328125 10.96875 -53.328125 C 9.75 -53.328125 8.71875 -53.75 7.875 -54.59375 C 7.03125 -55.4375 6.609375 -56.46875 6.609375 -57.6875 C 6.609375 -58.90625 7.03125 -59.929688 7.875 -60.765625 C 8.71875 -61.609375 9.75 -62.03125 10.96875 -62.03125 Z M 14.609375 -7.046875 C 14.609375 -5.367188 15.03125 -4.019531 15.875 -3 C 16.71875 -1.988281 18.007812 -1.484375 19.75 -1.484375 L 19.75 0 L 2.171875 0 L 2.171875 -1.484375 L 2.78125 -1.484375 C 4.40625 -1.597656 5.625 -2.160156 6.4375 -3.171875 C 7.25 -4.191406 7.65625 -5.800781 7.65625 -8 L 7.65625 -31.140625 C 7.65625 -32.015625 7.4375 -32.867188 7 -33.703125 C 6.5625 -34.546875 5.820312 -34.96875 4.78125 -34.96875 C 4.144531 -34.96875 3.363281 -34.796875 2.4375 -34.453125 L 1.828125 -35.75 L 13.140625 -40.984375 L 14.609375 -40.984375 Z M 14.609375 -7.046875 "/></g></g></g><g fill="#000000" fill-opacity="1"><g transform="translate(150.257886, 176.067065)"><g><path d="M 21.84375 -62.03125 C 24.445312 -62.03125 26.660156 -61.421875 28.484375 -60.203125 C 30.316406 -58.984375 31.234375 -57.503906 31.234375 -55.765625 C 31.234375 -54.722656 30.867188 -53.835938 30.140625 -53.109375 C 29.421875 -52.390625 28.535156 -52.03125 27.484375 -52.03125 C 26.679688 -52.03125 26.003906 -52.289062 25.453125 -52.8125 C 24.898438 -53.332031 24.332031 -54.113281 23.75 -55.15625 C 23.050781 -56.375 22.335938 -57.316406 21.609375 -57.984375 C 20.890625 -58.648438 19.921875 -58.984375 18.703125 -58.984375 C 17.078125 -58.984375 15.828125 -58.316406 14.953125 -56.984375 C 14.085938 -55.648438 13.65625 -53.648438 13.65625 -50.984375 L 13.65625 -40.109375 L 19.75 -40.109375 L 19.75 -37.40625 L 13.65625 -37.40625 L 13.65625 -7.046875 C 13.65625 -5.242188 14.132812 -3.863281 15.09375 -2.90625 C 16.050781 -1.957031 17.398438 -1.484375 19.140625 -1.484375 L 19.75 -1.484375 L 19.75 0 L 1.828125 0 L 1.828125 -1.484375 C 3.453125 -1.484375 4.671875 -1.957031 5.484375 -2.90625 C 6.296875 -3.863281 6.703125 -5.476562 6.703125 -7.75 L 6.703125 -37.40625 L 1.828125 -37.40625 L 1.828125 -40.109375 L 6.703125 -40.109375 L 6.703125 -44.546875 C 6.703125 -48.429688 7.441406 -51.675781 8.921875 -54.28125 C 10.398438 -56.894531 12.285156 -58.835938 14.578125 -60.109375 C 16.867188 -61.390625 19.289062 -62.03125 21.84375 -62.03125 Z M 21.84375 -62.03125 "/></g></g></g><g fill="#000000" fill-opacity="1"><g transform="translate(165.741295, 176.067065)"><g><path d="M 13.75 -52.8125 L 15.21875 -52.8125 L 15.21875 -40.109375 L 22.625 -40.109375 L 22.625 -37.40625 L 15.21875 -37.40625 L 15.21875 -10.875 C 15.21875 -8.382812 15.519531 -6.601562 16.125 -5.53125 C 16.738281 -4.457031 17.6875 -3.921875 18.96875 -3.921875 C 20.757812 -3.921875 22.148438 -4.960938 23.140625 -7.046875 L 24.796875 -7.046875 C 23.984375 -4.609375 22.71875 -2.617188 21 -1.078125 C 19.289062 0.453125 17.425781 1.21875 15.40625 1.21875 C 12.90625 1.21875 11.085938 0.273438 9.953125 -1.609375 C 8.828125 -3.492188 8.265625 -5.742188 8.265625 -8.359375 L 8.265625 -37.40625 L 3.3125 -37.40625 L 3.3125 -39.0625 C 5.976562 -40.625 8.125 -42.476562 9.75 -44.625 C 11.375 -46.769531 12.707031 -49.5 13.75 -52.8125 Z M 13.75 -52.8125 "/></g></g></g><g fill="#000000" fill-opacity="1"><g transform="translate(185.748095, 176.067065)"><g><path d="M 10.96875 -62.03125 C 12.175781 -62.03125 13.203125 -61.609375 14.046875 -60.765625 C 14.890625 -59.929688 15.3125 -58.90625 15.3125 -57.6875 C 15.3125 -56.46875 14.890625 -55.4375 14.046875 -54.59375 C 13.203125 -53.75 12.175781 -53.328125 10.96875 -53.328125 C 9.75 -53.328125 8.71875 -53.75 7.875 -54.59375 C 7.03125 -55.4375 6.609375 -56.46875 6.609375 -57.6875 C 6.609375 -58.90625 7.03125 -59.929688 7.875 -60.765625 C 8.71875 -61.609375 9.75 -62.03125 10.96875 -62.03125 Z M 14.609375 -7.046875 C 14.609375 -5.367188 15.03125 -4.019531 15.875 -3 C 16.71875 -1.988281 18.007812 -1.484375 19.75 -1.484375 L 19.75 0 L 2.171875 0 L 2.171875 -1.484375 L 2.78125 -1.484375 C 4.40625 -1.597656 5.625 -2.160156 6.4375 -3.171875 C 7.25 -4.191406 7.65625 -5.800781 7.65625 -8 L 7.65625 -31.140625 C 7.65625 -32.015625 7.4375 -32.867188 7 -33.703125 C 6.5625 -34.546875 5.820312 -34.96875 4.78125 -34.96875 C 4.144531 -34.96875 3.363281 -34.796875 2.4375 -34.453125 L 1.828125 -35.75 L 13.140625 -40.984375 L 14.609375 -40.984375 Z M 14.609375 -7.046875 "/></g></g></g><g fill="#000000" fill-opacity="1"><g transform="translate(201.231504, 176.067065)"><g><path d="M 13.390625 -40.984375 L 13.390625 -32.96875 L 13.578125 -32.96875 C 15.429688 -35.757812 17.226562 -37.789062 18.96875 -39.0625 C 20.707031 -40.34375 22.5625 -40.984375 24.53125 -40.984375 C 27.488281 -40.984375 29.648438 -39.9375 31.015625 -37.84375 C 32.378906 -35.757812 33.0625 -33.09375 33.0625 -29.84375 L 33.0625 -6.78125 C 33.0625 -5.28125 33.4375 -4.019531 34.1875 -3 C 34.945312 -1.988281 35.960938 -1.484375 37.234375 -1.484375 L 37.234375 0 L 21.046875 0 L 21.046875 -1.484375 C 24.410156 -1.484375 26.09375 -3.597656 26.09375 -7.828125 L 26.09375 -29.75 C 26.09375 -31.726562 25.671875 -33.238281 24.828125 -34.28125 C 23.992188 -35.320312 22.765625 -35.84375 21.140625 -35.84375 C 18.410156 -35.84375 15.828125 -34.070312 13.390625 -30.53125 L 13.390625 -7.75 C 13.390625 -5.476562 13.8125 -3.863281 14.65625 -2.90625 C 15.5 -1.957031 16.757812 -1.484375 18.4375 -1.484375 L 18.4375 0 L 1.828125 0 L 1.828125 -1.484375 C 3.273438 -1.484375 4.40625 -2.003906 5.21875 -3.046875 C 6.03125 -4.085938 6.4375 -5.679688 6.4375 -7.828125 L 6.4375 -32.453125 C 6.4375 -33.265625 6.234375 -33.898438 5.828125 -34.359375 C 5.421875 -34.828125 4.84375 -35.0625 4.09375 -35.0625 C 3.507812 -35.0625 2.867188 -34.945312 2.171875 -34.71875 L 1.828125 -36.015625 L 12 -40.984375 Z M 13.390625 -40.984375 "/></g></g></g><g fill="#000000" fill-opacity="1"><g transform="translate(233.938602, 176.067065)"><g><path d="M 18.703125 -40.984375 C 20.210938 -40.984375 21.585938 -40.765625 22.828125 -40.328125 C 24.078125 -39.890625 25.3125 -39.148438 26.53125 -38.109375 L 35.578125 -38.109375 C 36.222656 -38.109375 36.613281 -37.976562 36.75 -37.71875 C 36.894531 -37.457031 36.96875 -37.003906 36.96875 -36.359375 C 36.96875 -35.546875 36.894531 -34.992188 36.75 -34.703125 C 36.613281 -34.421875 36.253906 -34.28125 35.671875 -34.28125 L 29.921875 -34.28125 C 31.140625 -31.78125 31.75 -29.195312 31.75 -26.53125 C 31.75 -22.53125 30.546875 -19.28125 28.140625 -16.78125 C 25.734375 -14.289062 22.617188 -13.046875 18.796875 -13.046875 C 17.222656 -13.046875 15.566406 -13.335938 13.828125 -13.921875 C 12.265625 -11.953125 11.484375 -10.441406 11.484375 -9.390625 C 11.484375 -8.234375 12.25 -7.507812 13.78125 -7.21875 C 15.320312 -6.925781 17.945312 -6.753906 21.65625 -6.703125 C 26.1875 -6.640625 29.859375 -5.957031 32.671875 -4.65625 C 35.484375 -3.351562 36.890625 -0.757812 36.890625 3.125 C 36.890625 5.800781 35.957031 8.269531 34.09375 10.53125 C 32.238281 12.789062 29.742188 14.585938 26.609375 15.921875 C 23.484375 17.253906 20.09375 17.921875 16.4375 17.921875 C 13.945312 17.921875 11.628906 17.539062 9.484375 16.78125 C 7.335938 16.03125 5.625 15.03125 4.34375 13.78125 C 3.070312 12.539062 2.4375 11.195312 2.4375 9.75 C 2.4375 8.289062 3.015625 6.691406 4.171875 4.953125 C 5.335938 3.210938 7.132812 1.066406 9.5625 -1.484375 C 8.40625 -1.765625 7.519531 -2.28125 6.90625 -3.03125 C 6.300781 -3.789062 6 -4.664062 6 -5.65625 C 6 -7.914062 7.941406 -10.988281 11.828125 -14.875 C 9.796875 -16.207031 8.257812 -17.929688 7.21875 -20.046875 C 6.175781 -22.171875 5.65625 -24.507812 5.65625 -27.0625 C 5.65625 -31.113281 6.882812 -34.445312 9.34375 -37.0625 C 11.8125 -39.675781 14.929688 -40.984375 18.703125 -40.984375 Z M 13.484375 -28.453125 C 13.484375 -19.691406 15.367188 -15.3125 19.140625 -15.3125 C 20.703125 -15.3125 21.976562 -16.078125 22.96875 -17.609375 C 23.957031 -19.148438 24.453125 -21.660156 24.453125 -25.140625 C 24.453125 -30.242188 23.925781 -33.78125 22.875 -35.75 C 21.832031 -37.726562 20.414062 -38.71875 18.625 -38.71875 C 16.644531 -38.71875 15.289062 -37.757812 14.5625 -35.84375 C 13.84375 -33.925781 13.484375 -31.460938 13.484375 -28.453125 Z M 18.96875 -0.265625 C 16.238281 -0.265625 13.914062 -0.492188 12 -0.953125 C 9.625 1.890625 8.4375 4.238281 8.4375 6.09375 C 8.4375 6.957031 8.785156 7.910156 9.484375 8.953125 C 10.179688 10.003906 11.351562 10.90625 13 11.65625 C 14.65625 12.40625 16.847656 12.78125 19.578125 12.78125 C 23.921875 12.78125 27.410156 12.070312 30.046875 10.65625 C 32.691406 9.238281 34.015625 7.3125 34.015625 4.875 C 34.015625 3.300781 33.535156 2.164062 32.578125 1.46875 C 31.617188 0.78125 30.179688 0.332031 28.265625 0.125 C 26.359375 -0.0703125 23.257812 -0.203125 18.96875 -0.265625 Z M 18.96875 -0.265625 "/></g></g></g></svg>