<svg xmlns="http://www.w3.org/2000/svg" xmlns:xlink="http://www.w3.org/1999/xlink" width="603" zoomAndPan="magnify" viewBox="0 0 452.25 334.499999" height="446" preserveAspectRatio="xMidYMid meet" version="1.0"><defs><g/><clipPath id="6b0580d3f3"><path d="M 48 0.699219 L 325 0.699219 L 325 143 L 48 143 Z M 48 0.699219 " clip-rule="nonzero"/></clipPath><clipPath id="b79a90d93e"><rect x="0" width="277" y="0" height="143"/></clipPath><clipPath id="793244548d"><rect x="0" width="375" y="0" height="227"/></clipPath></defs><g transform="matrix(1, 0, 0, 1, 38, 53)"><g clip-path="url(#793244548d)"><g fill="#000000" fill-opacity="1"><g transform="translate(1.468077, 186.45303)"><g><path d="M 20.578125 -31.84375 L 20.859375 -31.5625 C 25.648438 -41.519531 30.582031 -49.410156 35.65625 -55.234375 C 40.726562 -61.054688 45.28125 -63.96875 49.3125 -63.96875 C 51.570312 -63.96875 53.332031 -63.21875 54.59375 -61.71875 C 55.863281 -60.21875 56.5 -58.101562 56.5 -55.375 C 56.5 -53.40625 56.171875 -51.101562 55.515625 -48.46875 L 51.578125 -31.84375 L 51.859375 -31.5625 C 57.960938 -43.300781 63.289062 -51.632812 67.84375 -56.5625 C 72.40625 -61.5 76.515625 -63.96875 80.171875 -63.96875 C 82.335938 -63.96875 84.097656 -63.238281 85.453125 -61.78125 C 86.816406 -60.332031 87.5 -58.335938 87.5 -55.796875 C 87.5 -54.765625 87.425781 -53.78125 87.28125 -52.84375 C 87.144531 -51.90625 86.957031 -51.035156 86.71875 -50.234375 C 86.488281 -49.429688 86.328125 -48.796875 86.234375 -48.328125 L 77.78125 -11.984375 C 77.21875 -9.722656 76.9375 -8.359375 76.9375 -7.890625 C 76.9375 -7.515625 77.078125 -7.207031 77.359375 -6.96875 C 77.640625 -6.738281 77.96875 -6.625 78.34375 -6.625 C 79.9375 -6.625 82.707031 -9.441406 86.65625 -15.078125 L 88.484375 -14.09375 C 84.640625 -8.363281 81.425781 -4.300781 78.84375 -1.90625 C 76.257812 0.488281 73.882812 1.6875 71.71875 1.6875 C 70.125 1.6875 68.804688 1.125 67.765625 0 C 66.734375 -1.125 66.21875 -2.722656 66.21875 -4.796875 C 66.21875 -7.046875 66.503906 -9.15625 67.078125 -11.125 L 75.953125 -48.890625 C 76.234375 -49.734375 76.375 -50.816406 76.375 -52.140625 C 76.375 -54.203125 75.617188 -55.234375 74.109375 -55.234375 C 71.671875 -55.234375 68.664062 -52.882812 65.09375 -48.1875 C 61.4375 -43.300781 57.84375 -37.546875 54.3125 -30.921875 C 50.789062 -24.304688 48.703125 -19.539062 48.046875 -16.625 L 44.25 0 L 33.8125 0 L 44.109375 -44.53125 C 44.296875 -45.1875 44.597656 -46.359375 45.015625 -48.046875 C 45.441406 -49.734375 45.65625 -50.957031 45.65625 -51.71875 C 45.65625 -54.0625 44.757812 -55.234375 42.96875 -55.234375 C 40.4375 -55.234375 36.867188 -52.132812 32.265625 -45.9375 C 28.972656 -41.425781 25.800781 -36.164062 22.75 -30.15625 C 19.695312 -24.144531 17.796875 -19.539062 17.046875 -16.34375 L 13.25 0 L 2.8125 0 L 13.8125 -47.765625 C 14.46875 -50.398438 14.796875 -52.5625 14.796875 -54.25 C 14.796875 -55.5625 14.375 -56.59375 13.53125 -57.34375 C 12.6875 -58.09375 11.273438 -58.566406 9.296875 -58.765625 L 9.859375 -61.015625 L 25.78125 -63.96875 L 28.046875 -63.96875 Z M 20.578125 -31.84375 "/></g></g></g><g fill="#000000" fill-opacity="1"><g transform="translate(82.342311, 186.45303)"><g><path d="M 37.203125 -63.96875 C 42.460938 -63.96875 46.546875 -62.132812 49.453125 -58.46875 C 52.367188 -54.8125 53.828125 -49.695312 53.828125 -43.125 C 53.828125 -36.445312 52.347656 -29.609375 49.390625 -22.609375 C 46.429688 -15.617188 42.4375 -9.820312 37.40625 -5.21875 C 32.382812 -0.613281 27.007812 1.6875 21.28125 1.6875 C 16.113281 1.6875 12.050781 -0.09375 9.09375 -3.65625 C 6.132812 -7.226562 4.65625 -12.207031 4.65625 -18.59375 C 4.65625 -25.457031 6.15625 -32.429688 9.15625 -39.515625 C 12.164062 -46.609375 16.179688 -52.457031 21.203125 -57.0625 C 26.234375 -61.664062 31.566406 -63.96875 37.203125 -63.96875 Z M 25.5 -52.421875 C 22.59375 -46.117188 20.195312 -38.578125 18.3125 -29.796875 C 16.4375 -21.015625 15.5 -14.695312 15.5 -10.84375 C 15.5 -7.84375 16.082031 -5.519531 17.25 -3.875 C 18.425781 -2.226562 20.238281 -1.40625 22.6875 -1.40625 C 27.101562 -1.40625 30.71875 -4.363281 33.53125 -10.28125 C 36.351562 -16.289062 38.628906 -23.523438 40.359375 -31.984375 C 42.097656 -40.441406 42.96875 -46.6875 42.96875 -50.71875 C 42.96875 -57.488281 40.578125 -60.875 35.796875 -60.875 C 33.441406 -60.875 31.46875 -60.164062 29.875 -58.75 C 28.28125 -57.34375 26.820312 -55.234375 25.5 -52.421875 Z M 25.5 -52.421875 "/></g></g></g><g fill="#000000" fill-opacity="1"><g transform="translate(127.992215, 186.45303)"><g><path d="M 20.578125 -31.84375 L 20.859375 -31.5625 C 25.648438 -41.519531 30.582031 -49.410156 35.65625 -55.234375 C 40.726562 -61.054688 45.28125 -63.96875 49.3125 -63.96875 C 51.570312 -63.96875 53.332031 -63.21875 54.59375 -61.71875 C 55.863281 -60.21875 56.5 -58.101562 56.5 -55.375 C 56.5 -53.40625 56.171875 -51.101562 55.515625 -48.46875 L 51.578125 -31.84375 L 51.859375 -31.5625 C 57.960938 -43.300781 63.289062 -51.632812 67.84375 -56.5625 C 72.40625 -61.5 76.515625 -63.96875 80.171875 -63.96875 C 82.335938 -63.96875 84.097656 -63.238281 85.453125 -61.78125 C 86.816406 -60.332031 87.5 -58.335938 87.5 -55.796875 C 87.5 -54.765625 87.425781 -53.78125 87.28125 -52.84375 C 87.144531 -51.90625 86.957031 -51.035156 86.71875 -50.234375 C 86.488281 -49.429688 86.328125 -48.796875 86.234375 -48.328125 L 77.78125 -11.984375 C 77.21875 -9.722656 76.9375 -8.359375 76.9375 -7.890625 C 76.9375 -7.515625 77.078125 -7.207031 77.359375 -6.96875 C 77.640625 -6.738281 77.96875 -6.625 78.34375 -6.625 C 79.9375 -6.625 82.707031 -9.441406 86.65625 -15.078125 L 88.484375 -14.09375 C 84.640625 -8.363281 81.425781 -4.300781 78.84375 -1.90625 C 76.257812 0.488281 73.882812 1.6875 71.71875 1.6875 C 70.125 1.6875 68.804688 1.125 67.765625 0 C 66.734375 -1.125 66.21875 -2.722656 66.21875 -4.796875 C 66.21875 -7.046875 66.503906 -9.15625 67.078125 -11.125 L 75.953125 -48.890625 C 76.234375 -49.734375 76.375 -50.816406 76.375 -52.140625 C 76.375 -54.203125 75.617188 -55.234375 74.109375 -55.234375 C 71.671875 -55.234375 68.664062 -52.882812 65.09375 -48.1875 C 61.4375 -43.300781 57.84375 -37.546875 54.3125 -30.921875 C 50.789062 -24.304688 48.703125 -19.539062 48.046875 -16.625 L 44.25 0 L 33.8125 0 L 44.109375 -44.53125 C 44.296875 -45.1875 44.597656 -46.359375 45.015625 -48.046875 C 45.441406 -49.734375 45.65625 -50.957031 45.65625 -51.71875 C 45.65625 -54.0625 44.757812 -55.234375 42.96875 -55.234375 C 40.4375 -55.234375 36.867188 -52.132812 32.265625 -45.9375 C 28.972656 -41.425781 25.800781 -36.164062 22.75 -30.15625 C 19.695312 -24.144531 17.796875 -19.539062 17.046875 -16.34375 L 13.25 0 L 2.8125 0 L 13.8125 -47.765625 C 14.46875 -50.398438 14.796875 -52.5625 14.796875 -54.25 C 14.796875 -55.5625 14.375 -56.59375 13.53125 -57.34375 C 12.6875 -58.09375 11.273438 -58.566406 9.296875 -58.765625 L 9.859375 -61.015625 L 25.78125 -63.96875 L 28.046875 -63.96875 Z M 20.578125 -31.84375 "/></g></g></g><g fill="#000000" fill-opacity="1"><g transform="translate(208.866449, 186.45303)"><g><path d="M 38.328125 -63.96875 C 41.523438 -63.96875 44.128906 -63.050781 46.140625 -61.21875 C 48.160156 -59.382812 49.171875 -57.015625 49.171875 -54.109375 C 49.171875 -51.097656 48.066406 -47.804688 45.859375 -44.234375 C 43.648438 -40.671875 40.195312 -37.382812 35.5 -34.375 C 30.8125 -31.375 25.035156 -29.21875 18.171875 -27.90625 C 17.890625 -24.238281 17.75 -21.9375 17.75 -21 C 17.75 -16.207031 18.5 -12.378906 20 -9.515625 C 21.507812 -6.648438 23.53125 -5.21875 26.0625 -5.21875 C 28.601562 -5.21875 31.070312 -6.0625 33.46875 -7.75 C 35.863281 -9.4375 38.28125 -11.550781 40.71875 -14.09375 L 42.546875 -12.546875 C 37.378906 -7.191406 33.289062 -3.476562 30.28125 -1.40625 C 27.28125 0.65625 24 1.6875 20.4375 1.6875 C 16.019531 1.6875 12.566406 -0.0703125 10.078125 -3.59375 C 7.585938 -7.113281 6.34375 -11.878906 6.34375 -17.890625 C 6.34375 -23.898438 7.84375 -30.566406 10.84375 -37.890625 C 13.851562 -45.222656 17.800781 -51.398438 22.6875 -56.421875 C 27.570312 -61.453125 32.785156 -63.96875 38.328125 -63.96875 Z M 18.875 -30.859375 C 23.289062 -31.703125 27.09375 -33.507812 30.28125 -36.28125 C 33.476562 -39.050781 35.851562 -42.171875 37.40625 -45.640625 C 38.957031 -49.117188 39.734375 -52.410156 39.734375 -55.515625 C 39.734375 -57.109375 39.40625 -58.398438 38.75 -59.390625 C 38.09375 -60.378906 37.0625 -60.875 35.65625 -60.875 C 31.988281 -60.875 28.628906 -57.628906 25.578125 -51.140625 C 22.523438 -44.660156 20.289062 -37.898438 18.875 -30.859375 Z M 18.875 -30.859375 "/></g></g></g><g fill="#000000" fill-opacity="1"><g transform="translate(247.189695, 186.45303)"><g><path d="M 21.421875 -31.5625 L 21.703125 -31.28125 C 33.253906 -53.070312 43.023438 -63.96875 51.015625 -63.96875 C 53.078125 -63.96875 54.738281 -63.21875 56 -61.71875 C 57.269531 -60.21875 57.90625 -58.195312 57.90625 -55.65625 C 57.90625 -52.65625 57.0625 -47.535156 55.375 -40.296875 L 50.859375 -21 C 50.390625 -18.738281 49.96875 -16.953125 49.59375 -15.640625 C 48.65625 -11.503906 48.1875 -8.921875 48.1875 -7.890625 C 48.1875 -6.484375 48.65625 -5.78125 49.59375 -5.78125 C 50.4375 -5.78125 51.46875 -6.410156 52.6875 -7.671875 C 53.914062 -8.941406 55.65625 -11.269531 57.90625 -14.65625 L 59.609375 -13.25 C 55.847656 -7.988281 52.675781 -4.179688 50.09375 -1.828125 C 47.507812 0.515625 44.992188 1.6875 42.546875 1.6875 C 40.765625 1.6875 39.40625 1.101562 38.46875 -0.0625 C 37.53125 -1.238281 37.0625 -2.675781 37.0625 -4.375 C 37.0625 -6.0625 37.484375 -8.597656 38.328125 -11.984375 L 45.65625 -43.40625 C 46.03125 -44.625 46.359375 -46.078125 46.640625 -47.765625 C 46.921875 -49.453125 47.0625 -50.675781 47.0625 -51.4375 C 47.0625 -52.5625 46.800781 -53.472656 46.28125 -54.171875 C 45.769531 -54.878906 45.140625 -55.234375 44.390625 -55.234375 C 42.691406 -55.234375 40.503906 -53.847656 37.828125 -51.078125 C 35.148438 -48.304688 32.265625 -44.429688 29.171875 -39.453125 C 25.878906 -34.097656 23.035156 -28.390625 20.640625 -22.328125 C 18.242188 -16.273438 16.109375 -8.832031 14.234375 0 L 3.796875 0 L 14.796875 -47.765625 C 15.546875 -51.242188 15.921875 -53.40625 15.921875 -54.25 C 15.921875 -55.9375 15.359375 -57.082031 14.234375 -57.6875 C 13.109375 -58.300781 11.554688 -58.609375 9.578125 -58.609375 L 10.140625 -60.875 L 26.625 -63.96875 L 29.03125 -63.96875 Z M 21.421875 -31.5625 "/></g></g></g><g fill="#000000" fill-opacity="1"><g transform="translate(300.166258, 186.45303)"><g><path d="M 30.4375 -79.046875 L 32.828125 -79.046875 L 29.03125 -62.28125 L 38.609375 -62.28125 L 37.625 -58.046875 L 28.046875 -58.046875 L 17.046875 -10.703125 C 16.859375 -9.953125 16.765625 -9.203125 16.765625 -8.453125 C 16.765625 -6.765625 17.28125 -5.921875 18.3125 -5.921875 C 20.382812 -5.921875 23.488281 -8.785156 27.625 -14.515625 L 30.4375 -14.515625 C 27.050781 -9.441406 23.691406 -5.472656 20.359375 -2.609375 C 17.023438 0.253906 14.039062 1.6875 11.40625 1.6875 C 9.8125 1.6875 8.5 1.101562 7.46875 -0.0625 C 6.4375 -1.238281 5.921875 -2.769531 5.921875 -4.65625 C 5.921875 -6.53125 6.578125 -10.332031 7.890625 -16.0625 L 17.609375 -58.046875 L 9.4375 -58.046875 L 10.140625 -61.015625 C 13.992188 -62.234375 17.726562 -64.484375 21.34375 -67.765625 C 24.957031 -71.054688 27.988281 -74.816406 30.4375 -79.046875 Z M 30.4375 -79.046875 "/></g></g></g><g fill="#000000" fill-opacity="1"><g transform="translate(325.245131, 186.45303)"><g><path d="M 28.890625 -63.96875 C 30.390625 -63.96875 31.84375 -63.734375 33.25 -63.265625 C 34.664062 -62.796875 36.265625 -62.1875 38.046875 -61.4375 C 39.546875 -60.78125 40.4375 -60.453125 40.71875 -60.453125 C 41.46875 -60.453125 42.078125 -60.707031 42.546875 -61.21875 C 43.023438 -61.738281 43.640625 -62.65625 44.390625 -63.96875 L 47.203125 -63.96875 L 43.828125 -42.6875 L 41.421875 -42.6875 C 41.140625 -49.082031 40.007812 -53.710938 38.03125 -56.578125 C 36.0625 -59.441406 33.53125 -60.875 30.4375 -60.875 C 28.363281 -60.875 26.671875 -60.210938 25.359375 -58.890625 C 24.046875 -57.578125 23.390625 -55.9375 23.390625 -53.96875 C 23.390625 -52.375 23.738281 -50.773438 24.4375 -49.171875 C 25.144531 -47.578125 26.347656 -45.460938 28.046875 -42.828125 L 34.515625 -32.828125 C 36.210938 -30.296875 37.578125 -27.570312 38.609375 -24.65625 C 39.640625 -21.75 40.15625 -19.070312 40.15625 -16.625 C 40.15625 -13.53125 39.285156 -10.570312 37.546875 -7.75 C 35.804688 -4.925781 33.503906 -2.644531 30.640625 -0.90625 C 27.773438 0.820312 24.75 1.6875 21.5625 1.6875 C 19.769531 1.6875 18.265625 1.5 17.046875 1.125 C 15.828125 0.75 14.515625 0.1875 13.109375 -0.5625 C 12.921875 -0.65625 12.472656 -0.863281 11.765625 -1.1875 C 11.054688 -1.519531 10.421875 -1.6875 9.859375 -1.6875 C 8.921875 -1.6875 8.144531 -1.425781 7.53125 -0.90625 C 6.925781 -0.394531 6.296875 0.46875 5.640625 1.6875 L 3.234375 1.6875 L 6.765625 -20.578125 L 9.15625 -20.578125 L 9.15625 -19.015625 C 9.15625 -13.566406 10.351562 -9.269531 12.75 -6.125 C 15.144531 -2.976562 17.988281 -1.40625 21.28125 -1.40625 C 23.8125 -1.40625 25.992188 -2.390625 27.828125 -4.359375 C 29.660156 -6.335938 30.578125 -8.78125 30.578125 -11.6875 C 30.578125 -13.664062 30.222656 -15.59375 29.515625 -17.46875 C 28.816406 -19.351562 27.757812 -21.46875 26.34375 -23.8125 L 20.015625 -33.953125 C 16.628906 -39.398438 14.9375 -44.425781 14.9375 -49.03125 C 14.9375 -53.257812 16.273438 -56.804688 18.953125 -59.671875 C 21.628906 -62.535156 24.941406 -63.96875 28.890625 -63.96875 Z M 28.890625 -63.96875 "/></g></g></g><g clip-path="url(#6b0580d3f3)"><g transform="matrix(1, 0, 0, 1, 48, -0.000000000000021316)"><g clip-path="url(#b79a90d93e)"><g fill="#000000" fill-opacity="1"><g transform="translate(1.219657, 101.785939)"><g><path d="M 30.296875 -66.359375 C 32.734375 -66.359375 34.960938 -66.003906 36.984375 -65.296875 C 39.003906 -64.597656 41 -63.40625 42.96875 -61.71875 L 57.625 -61.71875 C 58.664062 -61.71875 59.300781 -61.503906 59.53125 -61.078125 C 59.769531 -60.660156 59.890625 -59.9375 59.890625 -58.90625 C 59.890625 -57.582031 59.769531 -56.6875 59.53125 -56.21875 C 59.300781 -55.75 58.710938 -55.515625 57.765625 -55.515625 L 48.46875 -55.515625 C 50.445312 -51.472656 51.4375 -47.289062 51.4375 -42.96875 C 51.4375 -36.488281 49.484375 -31.226562 45.578125 -27.1875 C 41.679688 -23.15625 36.632812 -21.140625 30.4375 -21.140625 C 27.894531 -21.140625 25.21875 -21.609375 22.40625 -22.546875 C 19.863281 -19.347656 18.59375 -16.90625 18.59375 -15.21875 C 18.59375 -13.34375 19.835938 -12.164062 22.328125 -11.6875 C 24.816406 -11.21875 29.066406 -10.9375 35.078125 -10.84375 C 42.410156 -10.75 48.351562 -9.644531 52.90625 -7.53125 C 57.46875 -5.425781 59.75 -1.222656 59.75 5.078125 C 59.75 9.390625 58.242188 13.378906 55.234375 17.046875 C 52.222656 20.710938 48.179688 23.625 43.109375 25.78125 C 38.046875 27.945312 32.550781 29.03125 26.625 29.03125 C 22.59375 29.03125 18.835938 28.414062 15.359375 27.1875 C 11.878906 25.96875 9.109375 24.347656 7.046875 22.328125 C 4.984375 20.304688 3.953125 18.125 3.953125 15.78125 C 3.953125 13.4375 4.890625 10.851562 6.765625 8.03125 C 8.640625 5.207031 11.550781 1.734375 15.5 -2.390625 C 13.625 -2.859375 12.191406 -3.703125 11.203125 -4.921875 C 10.210938 -6.148438 9.71875 -7.5625 9.71875 -9.15625 C 9.71875 -12.820312 12.863281 -17.800781 19.15625 -24.09375 C 15.875 -26.25 13.382812 -29.039062 11.6875 -32.46875 C 10 -35.90625 9.15625 -39.691406 9.15625 -43.828125 C 9.15625 -50.398438 11.148438 -55.796875 15.140625 -60.015625 C 19.140625 -64.242188 24.191406 -66.359375 30.296875 -66.359375 Z M 21.84375 -46.078125 C 21.84375 -31.890625 24.894531 -24.796875 31 -24.796875 C 33.53125 -24.796875 35.59375 -26.039062 37.1875 -28.53125 C 38.789062 -31.019531 39.59375 -35.082031 39.59375 -40.71875 C 39.59375 -48.988281 38.742188 -54.71875 37.046875 -57.90625 C 35.359375 -61.101562 33.0625 -62.703125 30.15625 -62.703125 C 26.957031 -62.703125 24.769531 -61.148438 23.59375 -58.046875 C 22.425781 -54.953125 21.84375 -50.960938 21.84375 -46.078125 Z M 30.71875 -0.421875 C 26.300781 -0.421875 22.539062 -0.796875 19.4375 -1.546875 C 15.59375 3.054688 13.671875 6.859375 13.671875 9.859375 C 13.671875 11.273438 14.234375 12.828125 15.359375 14.515625 C 16.484375 16.203125 18.382812 17.65625 21.0625 18.875 C 23.738281 20.101562 27.285156 20.71875 31.703125 20.71875 C 38.742188 20.71875 44.398438 19.566406 48.671875 17.265625 C 52.953125 14.960938 55.09375 11.835938 55.09375 7.890625 C 55.09375 5.359375 54.316406 3.523438 52.765625 2.390625 C 51.210938 1.265625 48.882812 0.535156 45.78125 0.203125 C 42.6875 -0.117188 37.664062 -0.328125 30.71875 -0.421875 Z M 30.71875 -0.421875 "/></g></g></g><g fill="#000000" fill-opacity="1"><g transform="translate(54.200575, 101.785939)"><g><path d="M 17.75 -100.46875 C 19.726562 -100.46875 21.394531 -99.785156 22.75 -98.421875 C 24.113281 -97.054688 24.796875 -95.390625 24.796875 -93.421875 C 24.796875 -91.453125 24.113281 -89.785156 22.75 -88.421875 C 21.394531 -87.054688 19.726562 -86.375 17.75 -86.375 C 15.78125 -86.375 14.113281 -87.054688 12.75 -88.421875 C 11.382812 -89.785156 10.703125 -91.453125 10.703125 -93.421875 C 10.703125 -95.390625 11.382812 -97.054688 12.75 -98.421875 C 14.113281 -99.785156 15.78125 -100.46875 17.75 -100.46875 Z M 23.671875 -11.40625 C 23.671875 -8.6875 24.351562 -6.503906 25.71875 -4.859375 C 27.082031 -3.210938 29.171875 -2.390625 31.984375 -2.390625 L 31.984375 0 L 3.515625 0 L 3.515625 -2.390625 L 4.515625 -2.390625 C 7.140625 -2.578125 9.109375 -3.492188 10.421875 -5.140625 C 11.742188 -6.785156 12.40625 -9.394531 12.40625 -12.96875 L 12.40625 -50.4375 C 12.40625 -51.851562 12.050781 -53.238281 11.34375 -54.59375 C 10.632812 -55.957031 9.4375 -56.640625 7.75 -56.640625 C 6.71875 -56.640625 5.453125 -56.359375 3.953125 -55.796875 L 2.953125 -57.90625 L 21.28125 -66.359375 L 23.671875 -66.359375 Z M 23.671875 -11.40625 "/></g></g></g><g fill="#000000" fill-opacity="1"><g transform="translate(79.281908, 101.785939)"><g><path d="M 35.375 -100.46875 C 39.59375 -100.46875 43.179688 -99.476562 46.140625 -97.5 C 49.097656 -95.53125 50.578125 -93.140625 50.578125 -90.328125 C 50.578125 -88.628906 49.988281 -87.191406 48.8125 -86.015625 C 47.644531 -84.847656 46.21875 -84.265625 44.53125 -84.265625 C 43.207031 -84.265625 42.097656 -84.6875 41.203125 -85.53125 C 40.316406 -86.375 39.40625 -87.640625 38.46875 -89.328125 C 37.34375 -91.304688 36.191406 -92.832031 35.015625 -93.90625 C 33.835938 -94.988281 32.265625 -95.53125 30.296875 -95.53125 C 27.660156 -95.53125 25.640625 -94.445312 24.234375 -92.28125 C 22.828125 -90.125 22.125 -86.890625 22.125 -82.578125 L 22.125 -64.953125 L 31.984375 -64.953125 L 31.984375 -60.59375 L 22.125 -60.59375 L 22.125 -11.40625 C 22.125 -8.5 22.894531 -6.269531 24.4375 -4.71875 C 25.988281 -3.164062 28.175781 -2.390625 31 -2.390625 L 31.984375 -2.390625 L 31.984375 0 L 2.953125 0 L 2.953125 -2.390625 C 5.585938 -2.390625 7.5625 -3.164062 8.875 -4.71875 C 10.1875 -6.269531 10.84375 -8.878906 10.84375 -12.546875 L 10.84375 -60.59375 L 2.953125 -60.59375 L 2.953125 -64.953125 L 10.84375 -64.953125 L 10.84375 -72.140625 C 10.84375 -78.429688 12.039062 -83.691406 14.4375 -87.921875 C 16.832031 -92.148438 19.882812 -95.296875 23.59375 -97.359375 C 27.3125 -99.429688 31.238281 -100.46875 35.375 -100.46875 Z M 35.375 -100.46875 "/></g></g></g><g fill="#000000" fill-opacity="1"><g transform="translate(104.363241, 101.785939)"><g><path d="M 22.265625 -85.53125 L 24.65625 -85.53125 L 24.65625 -64.953125 L 36.640625 -64.953125 L 36.640625 -60.59375 L 24.65625 -60.59375 L 24.65625 -17.609375 C 24.65625 -13.566406 25.148438 -10.675781 26.140625 -8.9375 C 27.128906 -7.207031 28.65625 -6.34375 30.71875 -6.34375 C 33.625 -6.34375 35.878906 -8.03125 37.484375 -11.40625 L 40.15625 -11.40625 C 38.84375 -7.46875 36.800781 -4.253906 34.03125 -1.765625 C 31.257812 0.722656 28.226562 1.96875 24.9375 1.96875 C 20.894531 1.96875 17.957031 0.441406 16.125 -2.609375 C 14.300781 -5.660156 13.390625 -9.300781 13.390625 -13.53125 L 13.390625 -60.59375 L 5.359375 -60.59375 L 5.359375 -63.265625 C 9.679688 -65.804688 13.15625 -68.8125 15.78125 -72.28125 C 18.414062 -75.757812 20.578125 -80.175781 22.265625 -85.53125 Z M 22.265625 -85.53125 "/></g></g></g><g fill="#000000" fill-opacity="1"><g transform="translate(136.771737, 101.785939)"><g><path d="M 17.75 -100.46875 C 19.726562 -100.46875 21.394531 -99.785156 22.75 -98.421875 C 24.113281 -97.054688 24.796875 -95.390625 24.796875 -93.421875 C 24.796875 -91.453125 24.113281 -89.785156 22.75 -88.421875 C 21.394531 -87.054688 19.726562 -86.375 17.75 -86.375 C 15.78125 -86.375 14.113281 -87.054688 12.75 -88.421875 C 11.382812 -89.785156 10.703125 -91.453125 10.703125 -93.421875 C 10.703125 -95.390625 11.382812 -97.054688 12.75 -98.421875 C 14.113281 -99.785156 15.78125 -100.46875 17.75 -100.46875 Z M 23.671875 -11.40625 C 23.671875 -8.6875 24.351562 -6.503906 25.71875 -4.859375 C 27.082031 -3.210938 29.171875 -2.390625 31.984375 -2.390625 L 31.984375 0 L 3.515625 0 L 3.515625 -2.390625 L 4.515625 -2.390625 C 7.140625 -2.578125 9.109375 -3.492188 10.421875 -5.140625 C 11.742188 -6.785156 12.40625 -9.394531 12.40625 -12.96875 L 12.40625 -50.4375 C 12.40625 -51.851562 12.050781 -53.238281 11.34375 -54.59375 C 10.632812 -55.957031 9.4375 -56.640625 7.75 -56.640625 C 6.71875 -56.640625 5.453125 -56.359375 3.953125 -55.796875 L 2.953125 -57.90625 L 21.28125 -66.359375 L 23.671875 -66.359375 Z M 23.671875 -11.40625 "/></g></g></g><g fill="#000000" fill-opacity="1"><g transform="translate(161.85307, 101.785939)"><g><path d="M 21.703125 -66.359375 L 21.703125 -53.40625 L 21.984375 -53.40625 C 24.984375 -57.914062 27.890625 -61.203125 30.703125 -63.265625 C 33.523438 -65.328125 36.535156 -66.359375 39.734375 -66.359375 C 44.523438 -66.359375 48.023438 -64.664062 50.234375 -61.28125 C 52.441406 -57.90625 53.546875 -53.585938 53.546875 -48.328125 L 53.546875 -10.984375 C 53.546875 -8.546875 54.15625 -6.503906 55.375 -4.859375 C 56.59375 -3.210938 58.238281 -2.390625 60.3125 -2.390625 L 60.3125 0 L 34.09375 0 L 34.09375 -2.390625 C 39.539062 -2.390625 42.265625 -5.820312 42.265625 -12.6875 L 42.265625 -48.1875 C 42.265625 -51.382812 41.582031 -53.828125 40.21875 -55.515625 C 38.863281 -57.203125 36.867188 -58.046875 34.234375 -58.046875 C 29.828125 -58.046875 25.648438 -55.179688 21.703125 -49.453125 L 21.703125 -12.546875 C 21.703125 -8.878906 22.378906 -6.269531 23.734375 -4.71875 C 25.097656 -3.164062 27.144531 -2.390625 29.875 -2.390625 L 29.875 0 L 2.953125 0 L 2.953125 -2.390625 C 5.304688 -2.390625 7.140625 -3.234375 8.453125 -4.921875 C 9.765625 -6.617188 10.421875 -9.207031 10.421875 -12.6875 L 10.421875 -52.5625 C 10.421875 -53.875 10.09375 -54.90625 9.4375 -55.65625 C 8.78125 -56.40625 7.84375 -56.78125 6.625 -56.78125 C 5.6875 -56.78125 4.648438 -56.59375 3.515625 -56.21875 L 2.953125 -58.328125 L 19.4375 -66.359375 Z M 21.703125 -66.359375 "/></g></g></g><g fill="#000000" fill-opacity="1"><g transform="translate(214.833977, 101.785939)"><g><path d="M 30.296875 -66.359375 C 32.734375 -66.359375 34.960938 -66.003906 36.984375 -65.296875 C 39.003906 -64.597656 41 -63.40625 42.96875 -61.71875 L 57.625 -61.71875 C 58.664062 -61.71875 59.300781 -61.503906 59.53125 -61.078125 C 59.769531 -60.660156 59.890625 -59.9375 59.890625 -58.90625 C 59.890625 -57.582031 59.769531 -56.6875 59.53125 -56.21875 C 59.300781 -55.75 58.710938 -55.515625 57.765625 -55.515625 L 48.46875 -55.515625 C 50.445312 -51.472656 51.4375 -47.289062 51.4375 -42.96875 C 51.4375 -36.488281 49.484375 -31.226562 45.578125 -27.1875 C 41.679688 -23.15625 36.632812 -21.140625 30.4375 -21.140625 C 27.894531 -21.140625 25.21875 -21.609375 22.40625 -22.546875 C 19.863281 -19.347656 18.59375 -16.90625 18.59375 -15.21875 C 18.59375 -13.34375 19.835938 -12.164062 22.328125 -11.6875 C 24.816406 -11.21875 29.066406 -10.9375 35.078125 -10.84375 C 42.410156 -10.75 48.351562 -9.644531 52.90625 -7.53125 C 57.46875 -5.425781 59.75 -1.222656 59.75 5.078125 C 59.75 9.390625 58.242188 13.378906 55.234375 17.046875 C 52.222656 20.710938 48.179688 23.625 43.109375 25.78125 C 38.046875 27.945312 32.550781 29.03125 26.625 29.03125 C 22.59375 29.03125 18.835938 28.414062 15.359375 27.1875 C 11.878906 25.96875 9.109375 24.347656 7.046875 22.328125 C 4.984375 20.304688 3.953125 18.125 3.953125 15.78125 C 3.953125 13.4375 4.890625 10.851562 6.765625 8.03125 C 8.640625 5.207031 11.550781 1.734375 15.5 -2.390625 C 13.625 -2.859375 12.191406 -3.703125 11.203125 -4.921875 C 10.210938 -6.148438 9.71875 -7.5625 9.71875 -9.15625 C 9.71875 -12.820312 12.863281 -17.800781 19.15625 -24.09375 C 15.875 -26.25 13.382812 -29.039062 11.6875 -32.46875 C 10 -35.90625 9.15625 -39.691406 9.15625 -43.828125 C 9.15625 -50.398438 11.148438 -55.796875 15.140625 -60.015625 C 19.140625 -64.242188 24.191406 -66.359375 30.296875 -66.359375 Z M 21.84375 -46.078125 C 21.84375 -31.890625 24.894531 -24.796875 31 -24.796875 C 33.53125 -24.796875 35.59375 -26.039062 37.1875 -28.53125 C 38.789062 -31.019531 39.59375 -35.082031 39.59375 -40.71875 C 39.59375 -48.988281 38.742188 -54.71875 37.046875 -57.90625 C 35.359375 -61.101562 33.0625 -62.703125 30.15625 -62.703125 C 26.957031 -62.703125 24.769531 -61.148438 23.59375 -58.046875 C 22.425781 -54.953125 21.84375 -50.960938 21.84375 -46.078125 Z M 30.71875 -0.421875 C 26.300781 -0.421875 22.539062 -0.796875 19.4375 -1.546875 C 15.59375 3.054688 13.671875 6.859375 13.671875 9.859375 C 13.671875 11.273438 14.234375 12.828125 15.359375 14.515625 C 16.484375 16.203125 18.382812 17.65625 21.0625 18.875 C 23.738281 20.101562 27.285156 20.71875 31.703125 20.71875 C 38.742188 20.71875 44.398438 19.566406 48.671875 17.265625 C 52.953125 14.960938 55.09375 11.835938 55.09375 7.890625 C 55.09375 5.359375 54.316406 3.523438 52.765625 2.390625 C 51.210938 1.265625 48.882812 0.535156 45.78125 0.203125 C 42.6875 -0.117188 37.664062 -0.328125 30.71875 -0.421875 Z M 30.71875 -0.421875 "/></g></g></g></g></g></g></g></g></svg>