<svg width="180" height="180" viewBox="0 0 180 180" fill="none" xmlns="http://www.w3.org/2000/svg">
  <style>
    @media (prefers-color-scheme: light) {
      .background { fill: #3d3632; }
      .text { fill: #f5f0eb; }
    }
    @media (prefers-color-scheme: dark) {
      .background { fill: #f5f0eb; }
      .text { fill: #3d3632; }
    }
  </style>
  <rect class="background" width="180" height="180" rx="40"/>
  <!-- Elegant italic script "gm" - custom paths -->
  <g class="text" transform="translate(20, 35) scale(0.85)">
    <!-- Italic lowercase 'g' with flourish -->
    <path d="M 58 52 C 58 42 52 35 42 35 C 32 35 24 44 24 58 C 24 72 32 82 44 82 C 50 82 55 80 58 76 L 58 88 C 58 102 50 110 36 110 C 28 110 22 108 18 104 L 22 96 C 26 100 32 102 38 102 C 46 102 50 98 50 88 L 50 82 C 46 86 40 88 34 88 C 20 88 10 76 10 58 C 10 40 22 28 40 28 C 56 28 66 38 66 56 L 66 76 C 66 80 68 82 72 82 L 74 82 L 70 90 L 66 90 C 60 90 58 86 58 78 L 58 52 Z M 50 74 L 50 56 C 50 44 46 38 38 38 C 30 38 24 46 24 58 C 24 70 30 78 40 78 C 46 78 50 76 50 74 Z"/>
    <!-- Italic lowercase 'm' with elegant curves -->
    <path d="M 84 90 L 84 52 C 84 46 86 42 92 42 C 96 42 98 44 100 48 C 104 44 110 40 118 40 C 128 40 134 46 136 54 C 140 46 148 40 158 40 C 170 40 178 48 178 62 L 178 90 L 170 90 L 170 64 C 170 54 166 48 156 48 C 146 48 140 56 140 66 L 140 90 L 132 90 L 132 64 C 132 54 128 48 118 48 C 108 48 102 56 102 66 L 102 90 L 94 90 C 90 90 86 88 84 84 L 84 90 Z"/>
  </g>
</svg>
